# xmcd CD database file
#
# Track frame offsets:
#	150
#	13321
#	26268
#	46365
#	66366
#	83434
#	98760
#	114668
#	134760
#	157029
#	177904
#	195409
#	214062
#	229805
#	249220
#	269350
#	288333
#	305494
#	323309
#	341199
#
# Disc length: 4701 seconds
#
# Revision: 2
# Processed by: cddbd v1.5.2PL0 Copyright (c) Steve Scherf et al.
# Submitted via: CDex 1.51
#
DISCID=18125b14
DTITLE=Various Artist - ZM-UKPP-Disc-2
DYEAR=1900
DGENRE=Blues
TTITLE0=Patsy Cline - Crazy
TTITLE1=Queen - Crazy Little Thing Called Love
TTITLE2=Michael Buble - Cry Me A River
TTITLE3=Mavericks The - Dance The Night Away
TTITLE4=Abba - Dancing Queen
TTITLE5=Monkees The - Daydream Believer
TTITLE6=Tom Jones . Delilah
TTITLE7=Elton John and Kiki Dee - Don't Go Breaking My Heart
TTITLE8=Oasis - Don't Look Back In Anger
TTITLE9=Journey - Don't Stop Believin'
TTITLE10=Queen - Don't Stop Me Now
TTITLE11=Police The - Every Breath You Take
TTITLE12=Blues Brothers - Everybody Needs Somebody
TTITLE13=Irene Cara - Fame
TTITLE14=Kelly Marie - Feels Like I'm In Love
TTITLE15=Irene Cara - Flashdance What A Feeling
TTITLE16=Kenny Loggins - Footloose
TTITLE17=Cyndi Lauper - Girls Just Want To Have Fun
TTITLE18=Spandau Ballet - Gold
TTITLE19=Housemartins The - Happy Hour
EXTD=
EXTT0=
EXTT1=
EXTT2=
EXTT3=
EXTT4=
EXTT5=
EXTT6=
EXTT7=
EXTT8=
EXTT9=
EXTT10=
EXTT11=
EXTT12=
EXTT13=
EXTT14=
EXTT15=
EXTT16=
EXTT17=
EXTT18=
EXTT19=
PLAYORDER=
